<?xml version="1.0" encoding="utf-8"?>
<!-- Generator: Adobe Illustrator 24.3.0, SVG Export Plug-In . SVG Version: 6.00 Build 0)  -->
<svg version="1.1" id="Capa_1" xmlns="http://www.w3.org/2000/svg" xmlns:xlink="http://www.w3.org/1999/xlink" x="0px" y="0px"
	 viewBox="0 0 100 100" style="enable-background:new 0 0 100 100;" xml:space="preserve">
<style type="text/css">
	.st0{clip-path:url(#SVGID_2_);}
	.st1{clip-path:url(#SVGID_4_);}
	.st2{fill:#FFFFFF;}
</style>
<g>
	<g>
		<g>
			<defs>
				<circle id="SVGID_1_" cx="50" cy="50" r="50"/>
			</defs>
			<clipPath id="SVGID_2_">
				<use xlink:href="#SVGID_1_"  style="overflow:visible;"/>
			</clipPath>
			<g class="st0">
				<g>
					<g>
						<defs>
							<rect id="SVGID_3_" x="4.6" y="4.6" width="90.9" height="90.9"/>
						</defs>
						<clipPath id="SVGID_4_">
							<use xlink:href="#SVGID_3_"  style="overflow:visible;"/>
						</clipPath>
						<g class="st1">
							<path d="M-1.1,79.8c0-18.9-0.8-34.9-0.8-53.8c0.1-0.4,8.6-5.1,8.7-5.5C7.7,14,12.7,8.5,19.2,7c0.8-0.2,7.3-7,8.1-7.1
								c18.9,0,30.7,0.7,49.6,0.7c0.4,0.1,2.2,6.1,2.5,6.2C86,7.7,91.5,12.7,93,19.2c0.2,0.8,7.1,6.5,7.2,7.3c0,18.9,0,32.5,0,51.4
								c0,0.1-6.9,0.7-6.9,0.9c-0.7,5.8-3.6,10-8.6,12.8c-1.9,1.1-4.1,1.7-6.3,1.9c5,0,10,0,14.9,0c0,2.3,0,4.6,0,7
								c-29,0-57.9,0-86.9,0c0-2.3,0-4.6,0-7c5,0,10,0,14.9,0c-0.3-0.1-0.6-0.1-0.8-0.2c-6.6-0.9-12-5.7-13.6-12.2
								C6.9,80.2-0.9,80.8-1.1,79.8z M18.7,50c0,5.1,0,10.2,0,15.2c0,1,0.1,2.1,0.3,3.1c1.6,7.7,8.2,13,16,13c10,0,20.1,0,30.2,0
								c0.8,0,1.7-0.1,2.5-0.2c7.8-1.2,13.7-8,13.7-16c0-10,0-20.1,0-30.1c0-1-0.1-2.1-0.2-3.1c-1.2-7.6-8.1-13.4-15.7-13.4
								c-10.2,0-20.4,0-30.6,0c-1.9,0-3.7,0.3-5.5,1C22.9,22,18.7,28,18.7,34.8C18.7,39.9,18.7,44.9,18.7,50z M17.9,97.2
								c0.2,0.7,0.7,1,1.3,0.7c0.2-0.1,0.4-0.4,0.4-0.6s-0.2-0.4-0.4-0.5c-0.2-0.1-0.4-0.1-0.6-0.2c-0.1,0-0.2-0.2-0.2-0.3
								c0-0.1,0.1-0.3,0.2-0.3c0.2,0,0.4,0.1,0.6,0.2c0.1,0,0.2,0.1,0.4,0.3c-0.2-0.8-0.9-1-1.3-0.6c-0.4,0.3-0.3,0.8,0.1,1
								c0.2,0.1,0.4,0.1,0.5,0.2s0.2,0.2,0.3,0.4c-0.1,0.1-0.3,0.3-0.4,0.3c-0.2,0-0.3-0.1-0.5-0.2C18.2,97.4,18.1,97.3,17.9,97.2z
								 M10.9,95.8l-0.1-0.1c-0.1,0.1-0.3,0.2-0.3,0.3c-0.2,0.5-0.4,1-0.6,1.6C9.7,97,9.5,96.5,9.3,96c0-0.1-0.2-0.2-0.3-0.3
								l-0.1,0.1c0.2,0.7,0.5,1.3,0.7,2c0,0.1,0.2,0.2,0.3,0.2s0.2-0.1,0.3-0.2C10.4,97.1,10.7,96.4,10.9,95.8z M24.2,98
								c0.6,0,0.1-0.6,0.5-0.7C25,97.4,25,98,25.6,98c-0.2-0.4-0.5-0.6-0.7-0.9c0.2-0.2,0.4-0.4,0.6-0.6l-0.1-0.1
								c-0.3,0.2-0.5,0.4-0.8,0.7c-0.2-0.4,0.2-0.9-0.2-1.2c-0.1,0-0.1,0-0.2,0c0,0.1,0,0.3,0,0.4C24.2,96.7,24.2,97.3,24.2,98z
								 M12.2,97.2c0-0.5-0.2-0.8-0.6-0.9c-0.4,0-0.8,0.2-0.8,0.6c-0.1,0.5,0.2,0.9,0.6,1C11.8,98,12.1,97.8,12.2,97.2
								c-0.4,0.3-0.9,0.7-1.1-0.1C11.5,97.2,11.9,97.2,12.2,97.2z M16.7,97.2c0-0.5-0.3-0.8-0.8-0.9c-0.4,0-0.8,0.3-0.8,0.8
								s0.3,0.8,0.8,0.9C16.4,98,16.7,97.6,16.7,97.2z M22.3,97.1c0-0.5-0.3-0.8-0.8-0.8s-0.8,0.3-0.8,0.8s0.3,0.8,0.8,0.8
								C22,98,22.3,97.6,22.3,97.1z M14,97c-0.2-0.6-0.5-0.7-0.9-0.7c-0.4,0.1-0.6,0.4-0.6,0.9c0,0.4,0.3,0.7,0.7,0.8
								c0.4,0,0.7-0.1,0.8-0.7c-0.3,0.2-0.5,0.3-0.7,0.4c-0.3,0-0.5-0.3-0.4-0.6C12.9,96.1,13.5,96.8,14,97z M24,97.3
								c-0.2,0.1-0.3,0.2-0.4,0.2c-0.2,0.2-0.4,0.2-0.6,0s-0.2-0.7,0-0.8c0.2-0.2,0.4-0.2,0.6,0c0.1,0.1,0.2,0.1,0.3,0.2
								c-0.1-0.5-0.4-0.7-0.8-0.6s-0.6,0.4-0.6,0.9c0,0.4,0.3,0.7,0.7,0.8C23.6,98,23.9,97.8,24,97.3z M90.8,96.6
								c-0.2,0.5-0.4,0.9-0.5,1.3c0.1,0,0.1,0,0.2,0.1c0.2-0.5,0.4-1,0.6-1.5c-0.8,0-1.5,0-2.2,0v0.1c0.3,0,0.5,0,0.8,0.1
								c-0.2,0.4-0.3,0.8-0.5,1.2c0.1,0,0.1,0,0.2,0.1c0.2-0.4,0.4-0.9,0.6-1.3C90.2,96.6,90.5,96.6,90.8,96.6z M80.1,97.9
								c0.1,0,0.1,0,0.2,0c0-0.2,0-0.4,0-0.5s0.1-0.2,0.2-0.4c0.1,0.1,0.2,0.2,0.2,0.4c0.1,0.2,0,0.4,0.1,0.5h0.1c0-0.3,0-0.6,0-0.8
								c0-0.1-0.2-0.3-0.3-0.3c-0.4,0-0.8,0-1.1,0c0,0.4,0,0.7,0,1.1h0.1c0-0.2,0-0.4,0-0.6c0-0.1,0.1-0.2,0.2-0.3
								c0.1,0.1,0.2,0.2,0.2,0.3C80.1,97.5,80.1,97.7,80.1,97.9z M85.7,97.9c0.4,0,0.6-0.3,0.4-0.7c0-0.1,0-0.2,0-0.2
								c0-0.2,0-0.4-0.1-0.4c-0.2-0.1-0.4-0.1-0.6,0c-0.1,0-0.1,0.3-0.1,0.4s0,0.2,0,0.2C85.1,97.6,85.3,97.9,85.7,97.9z M19.8,96.4
								c0.1,0.3,0.1,0.6,0.2,0.8c0,0.1,0,0.2,0,0.3c0,0.5,0.1,0.6,0.7,0.4c-0.6-0.3-0.4-0.8-0.4-1.2c0.2-0.1,0.2-0.2,0.3-0.3
								c-0.2-0.2-0.4-0.3-0.5-0.5c0,0-0.1,0-0.1,0.1C19.9,96.2,19.8,96.3,19.8,96.4z M82.9,96.4C82.9,96.4,82.8,96.4,82.9,96.4
								c-0.4,0.3-0.6,0.6-1,1c0.3,0,0.5,0,0.7,0c0,0.1,0.1,0.2,0.2,0.4c0.1-0.2,0.2-0.4,0.3-0.5H83C82.9,97.1,82.9,96.8,82.9,96.4z
								 M88.5,96.4L88.5,96.4c-0.4,0.3-0.6,0.6-1,1.1c0.3,0,0.5,0,0.7,0c0.1,0.1,0.1,0.2,0.2,0.4c0-0.2,0-0.3,0.1-0.3
								c0-0.1,0.1-0.1,0.2-0.2C88.6,97.3,88.6,97.2,88.5,96.4z M84.3,96.8c-0.3-0.4-0.5-0.5-0.8-0.3c-0.4,0.2-0.4,1.1,0,1.3
								c0.2,0.1,0.5,0.1,0.6,0s0.2-0.4,0.2-0.6c0-0.1-0.3-0.2-0.5-0.3c-0.1,0-0.2,0-0.3,0.1C83.7,96.4,84,96.7,84.3,96.8z M15,97.9
								L15,97.9c-0.5-0.3-0.3-0.7-0.3-1c0-0.1,0.1-0.2,0.2-0.3c0-0.1,0.2-0.1,0.2-0.1c-0.1-0.2-0.3-0.3-0.4-0.5c0,0-0.1,0-0.2,0l0,0
								c-0.1,0.2-0.2,0.3-0.2,0.4c0.1,0.3,0.2,0.4,0.2,0.6c0,0.1,0,0.3,0,0.4C14.3,97.9,14.4,98,15,97.9z M71.4,97.4
								c0,0.4,0.2,0.5,0.5,0.5c0.2,0,0.5-0.2,0.5-0.3c0.1-0.3-0.1-0.4-0.4-0.5h-0.1c-0.1-0.1-0.2-0.2-0.2-0.3c0.1,0,0.3-0.1,0.4-0.1
								s0.2,0.1,0.4,0.3c-0.1-0.5-0.4-0.6-0.7-0.5c-0.2,0-0.3,0.3-0.4,0.4c0.2,0.1,0.3,0.3,0.5,0.4H72c0.1,0.1,0.1,0.2,0.2,0.3
								c-0.1,0.1-0.2,0.2-0.3,0.1C71.8,97.6,71.6,97.5,71.4,97.4z M86.4,97.1c0,0.5,0.2,0.7,0.5,0.7c0.4,0,0.6-0.3,0.6-0.7
								c0-0.4-0.2-0.7-0.6-0.7C86.6,96.4,86.4,96.7,86.4,97.1z M17,98.1c0.1-0.1,0.3-0.2,0.3-0.3c0-0.1,0-0.2,0-0.3
								c0-0.4-0.1-0.8,0.5-0.8l0.1-0.2c-0.3,0-0.6,0-0.9,0C17,96.9,17,97.4,17,98.1z M66.8,97.3c0.3,0,0.5,0,0.8,0
								c0-0.4-0.1-0.6-0.4-0.6S66.7,96.9,66.8,97.3c-0.1,0.2,0,0.5,0.3,0.5c0.3,0.1,0.4,0,0.6-0.4C67.3,97.6,67,97.9,66.8,97.3z
								 M75.9,97.4c0.2,0.2,0.4,0.4,0.5,0.5l0.1-0.1c-0.1-0.2-0.3-0.4-0.4-0.6c0.1-0.1,0.2-0.3,0.4-0.4c0,0,0,0-0.1-0.1
								c-0.2,0.1-0.4,0.3-0.5,0.4c0-0.3-0.1-0.5-0.1-0.7h-0.1c0,0.5,0,1,0,1.4h0.1C75.8,97.7,75.9,97.6,75.9,97.4z M66.6,96.5
								c-0.1,0-0.1-0.1-0.2-0.1c-0.2,0.4-0.3,0.8-0.5,1.2c-0.2-0.4-0.3-0.8-0.5-1.2c-0.1,0-0.1,0-0.2,0.1c0.2,0.4,0.3,0.9,0.5,1.3
								c0,0.1,0.1,0.1,0.2,0.1s0.2-0.1,0.2-0.2C66.3,97.3,66.5,96.9,66.6,96.5z M73.8,97.9c0.3,0,0.6-0.3,0.6-0.6s-0.3-0.6-0.5-0.6
								c-0.3,0-0.5,0.2-0.5,0.5C73.3,97.6,73.5,97.8,73.8,97.9z M70.6,97.3c0-0.3-0.2-0.6-0.5-0.6s-0.5,0.2-0.5,0.6
								c0,0.3,0.2,0.5,0.5,0.5C70.4,97.9,70.6,97.6,70.6,97.3z M79.3,97.3c0-0.3-0.2-0.6-0.5-0.6c-0.4,0-0.5,0.2-0.5,0.6
								c0,0.3,0.2,0.5,0.5,0.5C79.1,97.9,79.3,97.6,79.3,97.3z M75.4,97.5c-0.2,0-0.4,0-0.6,0.1c0-0.2-0.1-0.4,0-0.5
								c0.2-0.4,0.4,0,0.7,0.1c-0.1-0.3-0.3-0.5-0.5-0.4c-0.3,0-0.4,0.2-0.4,0.5s0.1,0.5,0.4,0.6C75.2,97.9,75.4,97.8,75.4,97.5z
								 M78.1,97.6c-0.3,0-0.5,0-0.7,0c-0.1,0-0.1-0.4,0-0.5c0.2-0.4,0.4,0.1,0.7,0.1c-0.1-0.3-0.2-0.5-0.5-0.4
								c-0.3,0-0.5,0.2-0.5,0.5s0.1,0.5,0.4,0.6C77.9,97.9,78.1,97.8,78.1,97.6z M68.7,97.1c-0.1-0.2-0.2-0.4-0.5-0.3
								c-0.3,0-0.5,0.2-0.5,0.5s0.1,0.5,0.5,0.6c0.3,0,0.4-0.1,0.5-0.4c-0.2,0.1-0.4,0.4-0.6,0.1c-0.1-0.1,0-0.3,0-0.5
								C68.3,97.1,68.5,97.1,68.7,97.1z M69.5,97.8c-0.3-0.3-0.3-0.8-0.1-0.9c-0.1-0.1-0.2-0.3-0.3-0.4c-0.1,0.1-0.1,0.2-0.2,0.3
								c0.1,0.2,0.2,0.4,0.2,0.7C69,97.8,69.1,97.9,69.5,97.8z M72.7,96.7c0,0.3,0.1,0.5,0.1,0.8c0,0.4,0.1,0.4,0.4,0.3
								c-0.3-0.3-0.3-0.7-0.2-0.7c0-0.2-0.1-0.4-0.1-0.6C72.8,96.6,72.7,96.7,72.7,96.7z M84.8,97.9L84.8,97.9
								c0.1-0.5,0.1-0.9,0.1-1.5c-0.2,0.1-0.4,0.2-0.5,0.3v0.1c0.1,0,0.2,0,0.4,0C84.8,97.1,84.8,97.5,84.8,97.9z M70.8,97.9
								c0.1,0,0.1,0,0.2,0c0-0.2,0-0.4,0.1-0.6s0.2-0.3,0.3-0.5c-0.2,0-0.4,0-0.6,0C70.8,97.1,70.8,97.5,70.8,97.9z M81.1,98.2
								c0.1,0,0.1,0,0.2,0.1c0.2-0.6,0.4-1.3,0.6-1.9c-0.1,0-0.1,0-0.2-0.1C81.5,96.9,81.3,97.6,81.1,98.2z"/>
							<path class="st2" d="M17.9,97.2c0.2,0.1,0.3,0.2,0.4,0.3c0.2,0.1,0.3,0.2,0.5,0.2c0.1,0,0.3-0.2,0.4-0.3
								c-0.1-0.1-0.2-0.3-0.3-0.4c-0.2-0.1-0.4-0.1-0.5-0.2c-0.4-0.2-0.5-0.7-0.1-1c0.5-0.4,1.2-0.1,1.3,0.6
								c-0.2-0.1-0.3-0.2-0.4-0.3C19,96,18.8,96,18.6,95.9c-0.1,0-0.2,0.2-0.2,0.3c0,0.1,0.1,0.2,0.2,0.3c0.2,0.1,0.4,0.1,0.6,0.2
								s0.4,0.4,0.4,0.5c0,0.2-0.2,0.5-0.4,0.6C18.6,98.2,18.1,97.9,17.9,97.2z"/>
							<path class="st2" d="M10.9,95.8c-0.2,0.7-0.5,1.3-0.7,2c0,0.1-0.2,0.2-0.3,0.2s-0.2-0.1-0.3-0.2c-0.3-0.7-0.5-1.3-0.7-2
								L9,95.7c0.1,0.1,0.3,0.2,0.3,0.3c0.2,0.5,0.4,1,0.6,1.7c0.2-0.6,0.4-1.1,0.6-1.6C10.6,95.8,10.7,95.8,10.9,95.8
								C10.8,95.7,10.9,95.7,10.9,95.8z"/>
							<path class="st2" d="M24.2,98c0-0.6,0-1.2,0-1.8c0-0.1,0-0.3,0-0.4c0.1,0,0.1,0,0.2,0c0.4,0.3,0,0.8,0.2,1.2
								c0.3-0.2,0.5-0.4,0.8-0.7l0.1,0.1c-0.2,0.2-0.4,0.4-0.6,0.6c0.2,0.3,0.4,0.6,0.7,0.9C25,98,25,97.4,24.7,97.2
								C24.3,97.3,24.8,98,24.2,98z"/>
							<path class="st2" d="M12.2,97.2c-0.4,0-0.7,0-1.1,0c0.2,0.9,0.7,0.4,1.1,0.2c-0.1,0.5-0.4,0.7-0.8,0.6s-0.7-0.5-0.6-1
								c0.1-0.4,0.4-0.7,0.8-0.6C12.1,96.4,12.3,96.6,12.2,97.2z M11.9,96.9c0,0,0-0.1,0.1-0.1c-0.1-0.1-0.3-0.2-0.4-0.2
								s-0.3,0.1-0.4,0.2v0.1C11.4,96.9,11.6,96.9,11.9,96.9z"/>
							<path class="st2" d="M16.7,97.2c0,0.5-0.3,0.8-0.8,0.8c-0.5,0-0.8-0.4-0.8-0.9s0.3-0.8,0.8-0.8
								C16.4,96.3,16.7,96.7,16.7,97.2z M16.4,97.1c0-0.3-0.1-0.6-0.5-0.5c-0.3,0-0.4,0.3-0.4,0.6c0,0.3,0.1,0.5,0.5,0.5
								C16.3,97.7,16.4,97.4,16.4,97.1z"/>
							<path class="st2" d="M22.3,97.1c0,0.5-0.3,0.8-0.8,0.8c-0.4,0-0.8-0.4-0.8-0.8c0-0.5,0.3-0.8,0.8-0.8
								C22,96.3,22.3,96.7,22.3,97.1z M22,97.1c0-0.3-0.1-0.6-0.5-0.5c-0.3,0-0.4,0.3-0.4,0.6c0,0.3,0.1,0.5,0.5,0.5
								C21.9,97.7,22,97.4,22,97.1z"/>
							<path class="st2" d="M14,97c-0.5-0.2-1-0.9-1.2,0.1c0,0.3,0.1,0.6,0.4,0.6c0.2,0,0.4-0.2,0.7-0.4c-0.1,0.5-0.4,0.7-0.8,0.7
								c-0.4,0-0.7-0.3-0.7-0.8c0-0.4,0.2-0.8,0.6-0.9C13.4,96.2,13.7,96.4,14,97z"/>
							<path class="st2" d="M24,97.3c-0.1,0.5-0.4,0.7-0.8,0.7s-0.7-0.3-0.7-0.8c0-0.4,0.2-0.8,0.6-0.9s0.7,0.1,0.8,0.6
								c-0.1-0.1-0.2-0.1-0.3-0.2c-0.2-0.2-0.4-0.2-0.6,0s-0.2,0.7,0,0.8c0.2,0.2,0.4,0.2,0.6,0C23.7,97.4,23.8,97.4,24,97.3z"/>
							<path class="st2" d="M90.8,96.6c-0.3,0-0.6,0-0.9,0c-0.2,0.4-0.4,0.9-0.6,1.3c-0.1,0-0.1,0-0.2-0.1c0.2-0.4,0.3-0.8,0.5-1.2
								c-0.3,0-0.5,0-0.8-0.1v-0.1c0.7,0,1.4,0,2.2,0c-0.2,0.5-0.4,1-0.6,1.5c-0.1,0-0.1,0-0.2-0.1C90.4,97.4,90.6,97,90.8,96.6z"/>
							<path class="st2" d="M80.1,97.9c0-0.2,0-0.4,0-0.6c0-0.1-0.1-0.2-0.2-0.3c-0.1,0.1-0.2,0.2-0.2,0.3c0,0.2,0,0.4,0,0.6h-0.1
								c0-0.4,0-0.7,0-1.1c0.3,0,0.7-0.1,1.1,0c0.1,0,0.3,0.2,0.3,0.3c0,0.3,0,0.6,0,0.8h-0.1c0-0.2,0-0.4-0.1-0.5
								c0-0.1-0.2-0.3-0.2-0.4c-0.1,0.1-0.2,0.2-0.2,0.4c0,0.2,0,0.4,0,0.5C80.3,97.9,80.2,97.9,80.1,97.9z"/>
							<path class="st2" d="M85.7,97.9c-0.5,0-0.6-0.3-0.4-0.7c0-0.1,0-0.2,0-0.2c0-0.2,0-0.4,0.1-0.4c0.2-0.1,0.4-0.1,0.6,0
								c0.1,0,0.1,0.3,0.1,0.4s0,0.2,0,0.2C86.3,97.6,86.1,97.9,85.7,97.9z M85.7,97.1c-0.1,0.2-0.2,0.2-0.3,0.3
								c0.1,0.1,0.2,0.2,0.3,0.2c0.1,0,0.2-0.1,0.3-0.2C85.9,97.3,85.8,97.2,85.7,97.1z M85.6,97c0.1,0,0.1,0.1,0.2,0.1
								c0-0.1,0.1-0.3,0.1-0.4s-0.2-0.2-0.2-0.2s-0.2,0.1-0.3,0.2C85.5,96.9,85.6,97,85.6,97z"/>
							<path class="st2" d="M19.8,96.4c0,0,0.1-0.2,0.2-0.3l0.1-0.1c0.2,0.2,0.4,0.3,0.5,0.5c-0.1,0.1-0.2,0.2-0.3,0.3
								c0,0.4-0.2,0.9,0.4,1.2c-0.6,0-0.7-0.1-0.7-0.6c0-0.1,0-0.2,0-0.3C19.9,96.9,19.8,96.7,19.8,96.4z"/>
							<path class="st2" d="M82.9,96.4c0,0.3,0.1,0.7,0.1,1h0.1c-0.1,0.2-0.2,0.3-0.3,0.5c-0.1-0.1-0.1-0.3-0.2-0.4
								c-0.2,0-0.4,0-0.7,0C82.2,97.1,82.5,96.7,82.9,96.4C82.8,96.4,82.8,96.4,82.9,96.4z"/>
							<path class="st2" d="M88.5,96.4c0.1,0.8,0.1,0.9,0.2,1c-0.1,0.1-0.1,0.1-0.2,0.2c0,0.1,0,0.1-0.1,0.3
								c-0.1-0.2-0.2-0.3-0.2-0.4c-0.2,0-0.4,0-0.7,0C87.8,97.1,88.1,96.7,88.5,96.4C88.4,96.4,88.5,96.4,88.5,96.4z"/>
							<path class="st2" d="M84.3,96.8c-0.3-0.1-0.6-0.4-0.8,0.1c0.1,0,0.2-0.1,0.3-0.1c0.2,0.1,0.5,0.2,0.5,0.3
								c0,0.2,0,0.5-0.2,0.6c-0.1,0.1-0.4,0.1-0.6,0c-0.4-0.2-0.3-1.1,0-1.3C83.8,96.3,84,96.4,84.3,96.8z M84.3,97.4
								c-0.2-0.2-0.3-0.3-0.5-0.3c-0.1,0-0.3,0.2-0.3,0.3c0,0.1,0.2,0.3,0.3,0.3C83.9,97.7,84,97.5,84.3,97.4z"/>
							<path class="st2" d="M15,97.9c-0.5,0.1-0.6,0-0.7-0.5c0-0.1,0-0.3,0-0.4c0-0.2-0.1-0.4-0.2-0.6c0-0.1,0.1-0.2,0.2-0.4l0,0
								c0.1,0,0.1,0,0.2,0c0.2,0.2,0.3,0.3,0.4,0.5c0,0-0.1,0.1-0.2,0.1c-0.1,0.1-0.2,0.2-0.2,0.3c0,0.3-0.2,0.8,0.3,0.9
								C15,97.8,15,97.9,15,97.9z"/>
							<path class="st2" d="M71.4,97.4c0.2,0.1,0.3,0.3,0.5,0.3c0.1,0,0.2-0.1,0.3-0.1c-0.1-0.1-0.1-0.2-0.2-0.3h-0.1
								c-0.2-0.1-0.3-0.3-0.5-0.4c0.1-0.1,0.2-0.3,0.4-0.4c0.3-0.1,0.5,0,0.7,0.5c-0.2-0.1-0.3-0.2-0.4-0.3c-0.1,0-0.3,0.1-0.4,0.1
								c0.1,0.1,0.2,0.2,0.2,0.3H72c0.3,0.1,0.5,0.2,0.4,0.5c-0.1,0.2-0.3,0.3-0.5,0.3C71.7,97.9,71.5,97.8,71.4,97.4z"/>
							<path class="st2" d="M86.4,97.1c0-0.5,0.2-0.7,0.6-0.7c0.3,0,0.6,0.3,0.6,0.7c0,0.5-0.2,0.7-0.6,0.7
								C86.6,97.9,86.4,97.6,86.4,97.1z M87.4,97.1c-0.2-0.2-0.3-0.5-0.5-0.5c-0.3,0-0.3,0.3-0.3,0.5s0,0.6,0.3,0.5
								C87.1,97.6,87.2,97.4,87.4,97.1z"/>
							<path class="st2" d="M17,98.1c0-0.6,0-1.2,0-1.7c0.3,0,0.5,0,0.9,0c0,0.1,0,0.2-0.1,0.2c-0.5,0.1-0.5,0.5-0.5,0.8
								c0,0.1,0,0.2,0,0.3C17.2,97.9,17.1,97.9,17,98.1z"/>
							<path class="st2" d="M66.8,97.3c0.2,0.6,0.5,0.2,0.8,0.1c-0.1,0.3-0.3,0.4-0.6,0.4c-0.3-0.1-0.4-0.3-0.4-0.6
								c0-0.3,0.2-0.5,0.5-0.5s0.5,0.2,0.4,0.6C67.4,97.3,67.1,97.3,66.8,97.3z"/>
							<path class="st2" d="M75.9,97.4c0,0.2-0.1,0.4-0.1,0.5h-0.1c0-0.5,0-1,0-1.4h0.1c0,0.2,0.1,0.5,0.1,0.7
								c0.2-0.1,0.4-0.3,0.5-0.4c0,0,0,0,0.1,0.1c-0.1,0.1-0.2,0.3-0.4,0.4c0.1,0.2,0.3,0.4,0.4,0.6L76.4,98
								C76.3,97.7,76.1,97.6,75.9,97.4z"/>
							<path class="st2" d="M66.6,96.5c-0.2,0.4-0.3,0.8-0.5,1.2c0,0.1-0.1,0.1-0.2,0.2l-0.2-0.1c-0.2-0.4-0.3-0.8-0.5-1.3
								c0.1,0,0.1,0,0.2-0.1c0.2,0.4,0.3,0.8,0.5,1.2c0.2-0.4,0.3-0.8,0.5-1.2C66.5,96.4,66.6,96.4,66.6,96.5z"/>
							<path class="st2" d="M73.8,97.9c-0.3,0-0.5-0.2-0.5-0.6c0-0.3,0.2-0.5,0.5-0.5s0.5,0.3,0.5,0.6
								C74.4,97.6,74.1,97.9,73.8,97.9z M73.9,96.9c-0.1,0-0.1,0-0.2,0c-0.1,0.1-0.2,0.3-0.2,0.4s0.2,0.2,0.3,0.4
								c0.1-0.1,0.3-0.3,0.3-0.4C74.1,97.2,74,97,73.9,96.9z"/>
							<path class="st2" d="M70.6,97.3c0,0.3-0.2,0.6-0.5,0.6s-0.5-0.2-0.5-0.5s0.2-0.6,0.5-0.6C70.4,96.7,70.6,97,70.6,97.3z
								 M70.5,97.3c-0.2-0.2-0.3-0.3-0.4-0.4c-0.1,0.1-0.3,0.2-0.3,0.4c0,0.1,0.2,0.3,0.3,0.4C70.2,97.6,70.3,97.5,70.5,97.3z"/>
							<path class="st2" d="M79.3,97.3c0,0.3-0.2,0.6-0.5,0.6s-0.5-0.2-0.5-0.5s0.2-0.6,0.5-0.6C79.1,96.7,79.3,97,79.3,97.3z
								 M79.2,97.3c-0.2-0.2-0.3-0.3-0.4-0.4c-0.1,0.1-0.3,0.3-0.3,0.4s0.2,0.2,0.3,0.4C78.9,97.6,79,97.5,79.2,97.3z"/>
							<path class="st2" d="M75.4,97.5c-0.1,0.3-0.2,0.4-0.5,0.3c-0.3,0-0.4-0.3-0.4-0.6c0-0.3,0.1-0.5,0.4-0.5s0.5,0.1,0.5,0.4
								c-0.3-0.1-0.5-0.5-0.7-0.1c-0.1,0.1,0,0.3,0,0.5C75,97.6,75.2,97.6,75.4,97.5z"/>
							<path class="st2" d="M78.1,97.6c0,0.2-0.2,0.3-0.5,0.3s-0.4-0.3-0.4-0.6c0-0.3,0.2-0.5,0.5-0.5s0.4,0.1,0.5,0.4
								c-0.3-0.1-0.5-0.5-0.7-0.1c-0.1,0.1-0.1,0.5,0,0.5C77.6,97.6,77.8,97.6,78.1,97.6z"/>
							<path class="st2" d="M68.7,97.1c-0.2,0-0.5,0-0.7-0.1c0,0.2-0.1,0.4,0,0.5c0.2,0.3,0.4,0,0.6-0.1c0,0.3-0.2,0.4-0.5,0.4
								s-0.5-0.3-0.5-0.6c0-0.3,0.2-0.5,0.5-0.5C68.5,96.7,68.7,96.9,68.7,97.1z"/>
							<path class="st2" d="M69.5,97.8c-0.4,0.1-0.5,0-0.5-0.3c0-0.2,0-0.4-0.2-0.7c0.1-0.1,0.2-0.2,0.2-0.3
								c0.1,0.1,0.2,0.3,0.3,0.4C69.2,97.1,69.2,97.5,69.5,97.8z"/>
							<path class="st2" d="M72.7,96.7c0,0,0.1-0.1,0.2-0.2c0,0.2,0.1,0.4,0.1,0.6c-0.1,0-0.1,0.5,0.2,0.7c-0.4,0.1-0.4,0.1-0.4-0.3
								C72.7,97.3,72.7,97.1,72.7,96.7z"/>
							<path class="st2" d="M84.8,97.9c0-0.4,0-0.7,0-1.1c-0.2,0-0.3,0-0.4,0v-0.1c0.2-0.1,0.3-0.2,0.5-0.3
								C84.9,97,84.9,97.4,84.8,97.9C84.9,97.9,84.9,97.9,84.8,97.9z"/>
							<path class="st2" d="M70.8,97.9c0-0.4,0-0.7,0-1.1c0.2,0,0.4,0,0.6,0c-0.1,0.2-0.3,0.3-0.3,0.5c-0.1,0.2,0,0.4-0.1,0.6
								C70.9,97.9,70.9,97.9,70.8,97.9z"/>
							<path class="st2" d="M81.1,98.2c0.2-0.6,0.4-1.2,0.6-1.9c0.1,0,0.1,0,0.2,0.1c-0.2,0.6-0.4,1.3-0.6,1.9
								C81.2,98.2,81.2,98.2,81.1,98.2z"/>
							<path d="M24.8,49.8c0-4.8,0-9.7,0-14.5c0-3.6,1.5-6.6,4.6-8.7c1.7-1.2,3.7-1.8,5.9-1.8c9.7,0,19.5,0,29.2,0
								c5.4,0,9.8,3.9,10.5,9.2c0.1,0.5,0.1,1,0.1,1.4c0,9.6,0,19.2,0,28.9c0,5.2-3.5,9.4-8.5,10.5c-0.7,0.1-1.4,0.2-2.1,0.2
								c-9.6,0-19.2,0-28.9,0c-5.2,0-9.4-3.5-10.5-8.5c-0.2-0.7-0.2-1.4-0.2-2.2C24.8,59.4,24.8,54.6,24.8,49.8z M49.8,64.4
								c8.1,0,14.6-6.5,14.6-14.5c0-8.1-6.4-14.7-14.5-14.7c-8.2,0-14.7,6.4-14.8,14.7C35.3,57.9,41.9,64.4,49.8,64.4z M65.8,29.5
								c-1.9,0-3.5,1.5-3.5,3.5s1.5,3.5,3.5,3.5c2,0,3.5-1.5,3.5-3.5C69.3,31.1,67.7,29.6,65.8,29.5z"/>
							<path d="M11.9,96.9c-0.2,0-0.5,0-0.7,0v-0.1c0.1-0.1,0.3-0.2,0.4-0.2C11.7,96.6,11.9,96.7,11.9,96.9
								C11.9,96.8,11.9,96.9,11.9,96.9z"/>
							<path d="M16.4,97.1c0,0.3-0.1,0.6-0.5,0.6c-0.3,0-0.4-0.2-0.5-0.5c0-0.3,0.1-0.6,0.4-0.6C16.2,96.6,16.3,96.8,16.4,97.1z"/>
							<path d="M22,97.1c0,0.3-0.1,0.6-0.5,0.6c-0.3,0-0.4-0.2-0.5-0.5c0-0.3,0.1-0.6,0.4-0.6C21.9,96.6,22,96.8,22,97.1z"/>
							<path d="M85.7,97.1c0.1,0.2,0.2,0.3,0.3,0.4c-0.1,0.1-0.2,0.2-0.3,0.2c-0.1,0-0.2-0.2-0.3-0.2C85.5,97.3,85.6,97.2,85.7,97.1
								z"/>
							<path d="M85.6,97c-0.1-0.1-0.1-0.2-0.2-0.3c0.1-0.1,0.2-0.2,0.3-0.2c0.1,0,0.2,0.1,0.2,0.2s-0.1,0.2-0.1,0.4
								C85.8,97.1,85.7,97.1,85.6,97z"/>
							<path d="M84.3,97.4c-0.2,0.2-0.4,0.3-0.5,0.3s-0.3-0.2-0.3-0.3c0-0.1,0.2-0.3,0.3-0.3C83.9,97,84.1,97.2,84.3,97.4z"/>
							<path d="M87.4,97.1c-0.2,0.2-0.3,0.5-0.5,0.5c-0.3,0-0.3-0.3-0.3-0.5s0-0.5,0.3-0.5C87.1,96.6,87.2,96.9,87.4,97.1z"/>
							<path d="M73.9,96.9c0.1,0.1,0.2,0.3,0.2,0.4s-0.2,0.3-0.3,0.4c-0.1-0.1-0.3-0.2-0.3-0.4c0-0.1,0.1-0.3,0.2-0.4
								C73.8,96.9,73.9,96.9,73.9,96.9z"/>
							<path d="M70.5,97.3c-0.2,0.2-0.3,0.3-0.4,0.4c-0.1-0.1-0.3-0.3-0.3-0.4s0.2-0.2,0.3-0.4C70.2,97,70.3,97.2,70.5,97.3z"/>
							<path d="M79.2,97.3c-0.2,0.2-0.3,0.3-0.4,0.4c-0.1-0.1-0.3-0.2-0.3-0.4c0-0.1,0.2-0.3,0.3-0.4C78.9,97,79,97.1,79.2,97.3z"/>
							<path d="M50.1,40.8c5.1,0,9.2,4.2,9.2,9.2s-4.2,9.2-9.2,9.2s-9.2-4.2-9.2-9.2S45,40.8,50.1,40.8z"/>
						</g>
					</g>
				</g>
				<rect x="-2.8" y="-0.9" width="19.7" height="100.9"/>
				<rect x="9.1" y="-3.4" width="92.7" height="19.7"/>
				<rect x="-2.8" y="81" width="102.8" height="19.7"/>
				<rect x="83.7" y="-1.9" width="19.7" height="102.6"/>
			</g>
		</g>
	</g>
</g>
</svg>
